<svg width="24" height="24" viewBox="0 0 24 24" fill="none" xmlns="http://www.w3.org/2000/svg">
<path d="M5 8V19H19V8H5ZM5 21C4.45 21 3.97917 20.8042 3.5875 20.4125C3.19583 20.0208 3 19.55 3 19V6.525C3 6.29167 3.0375 6.06667 3.1125 5.85C3.1875 5.63333 3.3 5.43333 3.45 5.25L4.7 3.725C4.88333 3.49167 5.1125 3.3125 5.3875 3.1875C5.6625 3.0625 5.95 3 6.25 3H17.75C18.05 3 18.3375 3.0625 18.6125 3.1875C18.8875 3.3125 19.1167 3.49167 19.3 3.725L20.55 5.25C20.7 5.43333 20.8125 5.63333 20.8875 5.85C20.9625 6.06667 21 6.29167 21 6.525V19C21 19.55 20.8042 20.0208 20.4125 20.4125C20.0208 20.8042 19.55 21 19 21H5ZM5.4 6H18.6L17.75 5H6.25L5.4 6Z" fill="#A5A5A5"/>
<path d="M15.3001 14.45L12.0001 17.75L8.70011 14.45C8.31351 14.0634 8.31351 13.4366 8.70011 13.05C9.08671 12.6634 9.71351 12.6634 10.1001 13.05L11.0001 13.95V10.75C11.0001 10.1977 11.4478 9.75 12.0001 9.75C12.5524 9.75 13.0001 10.1977 13.0001 10.75V13.95L13.9001 13.05C14.2867 12.6634 14.9135 12.6634 15.3001 13.05C15.6867 13.4366 15.6867 14.0634 15.3001 14.45Z" fill="#A5A5A5"/>
</svg>
