<svg width="20" height="20" viewBox="0 0 20 20" fill="none" xmlns="http://www.w3.org/2000/svg">
<path d="M9.9998 12.1L14.8998 7.20005C15.0831 7.01672 15.3165 6.92505 15.5998 6.92505C15.8831 6.92505 16.1165 7.01672 16.2998 7.20005C16.4831 7.38338 16.5748 7.61672 16.5748 7.90005C16.5748 8.18338 16.4831 8.41672 16.2998 8.60005L10.6998 14.2C10.4998 14.4 10.2665 14.5 9.9998 14.5C9.73313 14.5 9.4998 14.4 9.2998 14.2L3.6998 8.60005C3.51646 8.41672 3.4248 8.18338 3.4248 7.90005C3.4248 7.61672 3.51646 7.38338 3.6998 7.20005C3.88313 7.01672 4.11646 6.92505 4.3998 6.92505C4.68313 6.92505 4.91646 7.01672 5.0998 7.20005L9.9998 12.1Z" fill="#FAFAFA"/>
</svg>
