<svg width="24" height="24" viewBox="0 0 24 24" fill="none" xmlns="http://www.w3.org/2000/svg">
<path d="M11.9998 14C11.1665 14 10.4581 13.7083 9.87484 13.125C9.29151 12.5417 8.99984 11.8333 8.99984 11V5C8.99984 4.16667 9.29151 3.45833 9.87484 2.875C10.4581 2.29167 11.1665 2 11.9998 2C12.8331 2 13.5415 2.29167 14.1248 2.875C14.7081 3.45833 14.9998 4.16667 14.9998 5V11C14.9998 11.8333 14.7081 12.5417 14.1248 13.125C13.5415 13.7083 12.8331 14 11.9998 14ZM11.9998 21C11.4475 21 10.9998 20.5523 10.9998 20V17.925C9.26651 17.6917 7.83317 16.9167 6.69984 15.6C5.78711 14.5396 5.24191 13.3387 5.06425 11.9973C4.99174 11.4498 5.44756 11 5.99984 11C6.55212 11 6.98766 11.4518 7.09034 11.9945C7.27255 12.9574 7.72988 13.805 8.46234 14.5375C9.43734 15.5125 10.6165 16 11.9998 16C13.3831 16 14.5623 15.5125 15.5373 14.5375C16.2698 13.805 16.7271 12.9574 16.9093 11.9945C17.012 11.4518 17.4475 11 17.9998 11C18.5521 11 19.0079 11.4498 18.9354 11.9973C18.7577 13.3387 18.2125 14.5396 17.2998 15.6C16.1665 16.9167 14.7331 17.6917 12.9998 17.925V20C12.9998 20.5523 12.5521 21 11.9998 21ZM11.9998 12C12.2831 12 12.5206 11.9042 12.7123 11.7125C12.904 11.5208 12.9998 11.2833 12.9998 11V5C12.9998 4.71667 12.904 4.47917 12.7123 4.2875C12.5206 4.09583 12.2831 4 11.9998 4C11.7165 4 11.479 4.09583 11.2873 4.2875C11.0956 4.47917 10.9998 4.71667 10.9998 5V11C10.9998 11.2833 11.0956 11.5208 11.2873 11.7125C11.479 11.9042 11.7165 12 11.9998 12Z" fill="#FAFAFA"/>
</svg>
