<svg width="50" height="24" viewBox="0 0 50 24" fill="none" xmlns="http://www.w3.org/2000/svg">
<path d="M4 20C3.45 20 2.97917 19.8042 2.5875 19.4125C2.19583 19.0208 2 18.55 2 18V6C2 5.45 2.19583 4.97917 2.5875 4.5875C2.97917 4.19583 3.45 4 4 4H16C16.55 4 17.0208 4.19583 17.4125 4.5875C17.8042 4.97917 18 5.45 18 6V10.5L21.15 7.35C21.3167 7.18333 21.5 7.14167 21.7 7.225C21.9 7.30833 22 7.46667 22 7.7V16.3C22 16.5333 21.9 16.6917 21.7 16.775C21.5 16.8583 21.3167 16.8167 21.15 16.65L18 13.5V18C18 18.55 17.8042 19.0208 17.4125 19.4125C17.0208 19.8042 16.55 20 16 20H4ZM4 18H16V6H4V18Z" fill="#FAFAFA"/>
<path d="M39.9998 14.1L44.8998 9.20005C45.0831 9.01672 45.3165 8.92505 45.5998 8.92505C45.8831 8.92505 46.1165 9.01672 46.2998 9.20005C46.4831 9.38338 46.5748 9.61672 46.5748 9.90005C46.5748 10.1834 46.4831 10.4167 46.2998 10.6L40.6998 16.2C40.4998 16.4 40.2665 16.5 39.9998 16.5C39.7331 16.5 39.4998 16.4 39.2998 16.2L33.6998 10.6C33.5165 10.4167 33.4248 10.1834 33.4248 9.90005C33.4248 9.61672 33.5165 9.38338 33.6998 9.20005C33.8831 9.01672 34.1165 8.92505 34.3998 8.92505C34.6831 8.92505 34.9165 9.01672 35.0998 9.20005L39.9998 14.1Z" fill="#FAFAFA"/>
</svg>
