<svg width="24" height="24" viewBox="0 0 24 24" fill="none" xmlns="http://www.w3.org/2000/svg">
<path fill-rule="evenodd" clip-rule="evenodd" d="M3.00013 9L0.940132 5.53C0.540218 4.86348 1.01283 4 1.79012 4H19.3335C20.8062 4 22.0001 5.19391 22.0001 6.66667V17.3333C22.0001 18.8061 20.8062 20 19.3335 20H5.6668C4.19404 20 3.00013 18.8061 3.00013 17.3333V9ZM5.00013 8.44603L3.53252 6H19.3335C19.7017 6 20.0001 6.29848 20.0001 6.66667V17.3333C20.0001 17.7015 19.7017 18 19.3335 18H5.6668C5.29861 18 5.00013 17.7015 5.00013 17.3333V8.44603Z" fill="#a5a5a5" fill-opacity="1"/>
<path d="M7 10C7 9.44772 7.44772 9 8 9H17C17.5523 9 18 9.44772 18 10C18 10.5523 17.5523 11 17 11H8C7.44772 11 7 10.5523 7 10Z" fill="#a5a5a5" fill-opacity="1"/>
<path d="M7 14C7 13.4477 7.44772 13 8 13H14C14.5523 13 15 13.4477 15 14C15 14.5523 14.5523 15 14 15H8C7.44772 15 7 14.5523 7 14Z" fill="#a5a5a5" fill-opacity="1"/>
</svg>
