<svg width="24" height="24" viewBox="0 0 24 24" fill="none" xmlns="http://www.w3.org/2000/svg">
<path d="M13.5631 3.13665C13.659 2.59276 14.1797 2.22468 14.7113 2.3744C15.7908 2.67844 16.8138 3.16258 17.7363 3.8086C18.9326 4.64627 19.9308 5.73577 20.6609 7.00052C21.391 8.26528 21.8352 9.67459 21.9623 11.1294C22.0604 12.2513 21.968 13.3794 21.6914 14.4662C21.5552 15.0014 20.9761 15.2682 20.4571 15.0792C19.9381 14.8903 19.6773 14.317 19.8001 13.7785C19.9846 12.9693 20.0425 12.1343 19.9699 11.3035C19.8682 10.1396 19.5129 9.01221 18.9288 8.0004C18.3447 6.9886 17.5461 6.117 16.5891 5.44686C15.906 4.96846 15.1539 4.60103 14.3609 4.35613C13.8332 4.19316 13.4672 3.68054 13.5631 3.13665Z" fill="#a5a5a5" fill-opacity="1"/>
<path d="M18.894 17.785C19.3171 18.14 19.3755 18.7749 18.98 19.1604C18.177 19.9433 17.2462 20.5872 16.2255 21.0631C14.9019 21.6802 13.4593 22 11.9989 21.9999C10.5385 21.9998 9.09595 21.6798 7.77249 21.0625C6.75182 20.5864 5.82111 19.9424 5.01817 19.1594C4.62276 18.7739 4.68129 18.1389 5.10441 17.784C5.52754 17.4291 6.15446 17.4898 6.55938 17.8654C7.1679 18.4298 7.86207 18.8974 8.61791 19.25C9.67669 19.7438 10.8308 19.9998 11.999 19.9999C13.1673 20 14.3214 19.7442 15.3803 19.2505C16.1362 18.898 16.8304 18.4304 17.439 17.8661C17.844 17.4906 18.4709 17.43 18.894 17.785Z" fill="#a5a5a5" fill-opacity="1"/>
<path d="M3.54277 15.0781C3.02379 15.267 2.4447 15.0001 2.30857 14.4649C2.03215 13.3781 1.9399 12.2501 2.03806 11.1283C2.16533 9.67355 2.60965 8.26438 3.33978 6.99977C4.06991 5.73516 5.06815 4.6458 6.26432 3.80825C7.1868 3.16234 8.20975 2.67827 9.28915 2.37428C9.82075 2.22456 10.3414 2.59264 10.4373 3.13654C10.5332 3.68043 10.1672 4.19305 9.6395 4.356C8.84657 4.60087 8.09458 4.96825 7.41146 5.44657C6.45452 6.11661 5.65593 6.9881 5.07183 7.99978C4.48772 9.01147 4.13226 10.1389 4.03045 11.3026C3.95776 12.1334 4.01559 12.9683 4.19998 13.7774C4.3227 14.3159 4.06175 14.8892 3.54277 15.0781Z" fill="#a5a5a5" fill-opacity="1"/>
<path fill-rule="evenodd" clip-rule="evenodd" d="M12 16C14.2091 16 16 14.2091 16 12C16 9.79086 14.2091 8 12 8C9.79086 8 8 9.79086 8 12C8 14.2091 9.79086 16 12 16ZM12 18C15.3137 18 18 15.3137 18 12C18 8.68629 15.3137 6 12 6C8.68629 6 6 8.68629 6 12C6 15.3137 8.68629 18 12 18Z" fill="#a5a5a5" fill-opacity="1"/>
</svg>
