<svg width="18" height="18" viewBox="0 0 18 18" fill="none" xmlns="http://www.w3.org/2000/svg">
<path d="M17.3938 5.03487L16.8238 4.59087C16.6358 4.44387 16.3618 4.47787 16.2148 4.66687L9.82479 12.8649C9.67779 13.0529 9.41879 13.0709 9.24779 12.9039L8.82079 12.5159C8.64979 12.3489 8.38979 12.3659 8.24279 12.5539L7.79179 13.1299C7.64479 13.3179 7.66379 13.6079 7.83479 13.7749L9.40979 15.2849C9.58079 15.4519 9.83979 15.4339 9.98679 15.2459L17.4698 5.64387C17.6158 5.45587 17.5818 5.18187 17.3938 5.03487ZM12.5018 5.03487L11.9318 4.59087C11.7438 4.44387 11.4698 4.47787 11.3228 4.66687L4.93279 12.8649C4.78579 13.0529 4.52679 13.0709 4.35579 12.9039L1.74179 10.3479C1.57079 10.1809 1.29479 10.1839 1.12779 10.3549L0.622789 10.8709C0.455789 11.0419 0.458789 11.3179 0.629789 11.4849L4.51679 15.2849C4.68779 15.4519 4.94679 15.4339 5.09379 15.2459L12.5768 5.64387C12.7238 5.45587 12.6898 5.18187 12.5018 5.03487Z" fill="#A5A5A5"/>
</svg>
