<svg width="104" height="28" viewBox="0 0 104 28" fill="none" xmlns="http://www.w3.org/2000/svg">
<path d="M13.07 21.3429L10.389 10.5759H10.344L7.708 21.3429H4.186L0 5.52295H2.981L5.84 17.6209H5.89L8.973 5.52295H11.801L14.798 17.6209H14.817L17.86 5.52295H20.775L16.523 21.3429H13.067H13.07ZM34.672 11.5719C34.996 11.0839 35.4093 10.6929 35.912 10.3989C36.4377 10.0944 37.0111 9.8807 37.608 9.76695C38.234 9.64195 38.687 9.57895 39.321 9.57895C39.8963 9.57895 40.4793 9.61962 41.07 9.70095C41.66 9.78195 42.035 9.94095 42.523 10.1769C43.009 10.4143 43.407 10.7433 43.717 11.1639C44.0277 11.5839 44.183 12.1413 44.183 12.8359V18.7959C44.183 19.3146 44.213 19.8093 44.273 20.28C44.3303 20.7533 44.4337 21.1076 44.583 21.3429H41.56C41.4993 21.1655 41.4512 20.9841 41.416 20.7999C41.3793 20.6133 41.3532 20.4246 41.338 20.235C40.8504 20.744 40.2397 21.1187 39.565 21.3229C38.8908 21.5286 38.1898 21.6328 37.485 21.632C36.938 21.632 36.594 21.5659 36.121 21.4319C35.6703 21.3094 35.2487 21.0979 34.881 20.8099C34.5245 20.5255 34.2402 20.1609 34.051 19.7459C33.851 19.3179 33.751 18.8083 33.751 18.2169C33.751 17.5669 33.865 17.0316 34.093 16.6109C34.3223 16.1896 34.6177 15.8529 34.979 15.6009C35.3417 15.3496 35.7553 15.1619 36.22 15.0379C36.685 14.9119 36.989 14.8129 37.461 14.7379C37.9343 14.6659 38.3993 14.6066 38.856 14.5599C39.314 14.5169 39.886 14.4509 40.24 14.3619C40.5947 14.2739 40.8747 14.1443 41.08 13.9729C41.2867 13.8036 41.3827 13.5563 41.368 13.2309C41.368 12.8929 41.3123 12.6236 41.201 12.4229C41.091 12.2229 40.9433 12.0676 40.758 11.9569C40.573 11.8469 40.193 11.7739 39.95 11.7359C39.6899 11.697 39.427 11.6786 39.164 11.6809C38.542 11.6809 37.918 11.8129 37.564 12.0789C37.2093 12.3456 37.002 12.7889 36.942 13.4089H34.115C34.159 12.6709 34.3433 12.0579 34.668 11.5699L34.672 11.5719ZM40.706 16.0139C40.4956 16.0838 40.2808 16.1396 40.063 16.1809C39.835 16.2243 39.595 16.2613 39.343 16.2919C39.091 16.3226 38.8403 16.3593 38.591 16.4019C38.355 16.4469 37.956 16.5069 37.728 16.5799C37.514 16.647 37.3121 16.748 37.13 16.8789C36.9593 17.0056 36.8227 17.1643 36.72 17.3549C36.6173 17.5463 36.5657 17.7903 36.565 18.0869C36.565 18.3829 36.618 18.602 36.72 18.794C36.8183 18.98 36.9639 19.1369 37.142 19.249C37.318 19.3596 37.5247 19.4363 37.762 19.4789C37.9987 19.5249 38.242 19.5479 38.492 19.5479C39.113 19.5479 39.922 19.4439 40.262 19.2369C40.6007 19.0303 40.8517 18.783 41.015 18.495C41.1777 18.2083 41.2777 17.9163 41.315 17.6189C41.3523 17.3256 41.371 17.0893 41.371 16.9099V15.7369C41.237 15.8559 40.906 15.9469 40.708 16.0129L40.706 16.0139ZM73.524 15.1149L71.26 8.52295H71.184L68.847 15.1099L73.526 15.1149H73.524ZM72.708 5.52295L78.621 21.3429H75.666L74.236 17.1279H68.138L66.656 21.3429H63.747L69.727 5.52295H72.708ZM86.179 18.9699C86.527 18.7646 86.8077 18.4956 87.021 18.1629C87.2343 17.8309 87.386 17.443 87.476 16.999C87.5627 16.5556 87.606 16.1056 87.606 15.6489C87.6067 15.1916 87.559 14.7406 87.463 14.2959C87.3762 13.8757 87.215 13.4744 86.987 13.1109C86.7709 12.769 86.479 12.4812 86.134 12.2699C85.7873 12.0546 85.3623 11.9469 84.859 11.9469C84.357 11.9469 83.911 12.0569 83.566 12.2699C83.2173 12.4833 82.9363 12.7599 82.723 13.0999C82.5016 13.4606 82.3474 13.8583 82.268 14.2739C82.1793 14.7166 82.1353 15.1746 82.136 15.6479C82.136 16.1219 82.182 16.5549 82.28 16.9979C82.376 17.4406 82.5307 17.8283 82.744 18.1609C82.9593 18.4943 83.2437 18.7636 83.597 18.9689C83.9517 19.1756 84.3797 19.2793 84.881 19.28C85.383 19.28 85.83 19.1759 86.175 18.9699H86.179ZM82.105 9.88795V11.3509H82.149C82.5323 10.7309 83.0193 10.2803 83.61 9.99895C84.2 9.71795 84.685 9.57895 85.394 9.57895C86.294 9.57895 86.902 9.74795 87.554 10.0879C88.204 10.4273 88.7427 10.8779 89.17 11.4399C89.5973 12.0019 89.915 12.6553 90.123 13.3999C90.329 14.1466 90.4323 14.9259 90.433 15.7379C90.4323 16.5059 90.329 17.2449 90.123 17.9549C89.9285 18.6353 89.6091 19.2735 89.181 19.8369C88.7602 20.384 88.2228 20.8304 87.608 21.1439C86.98 21.4679 86.411 21.632 85.57 21.632C84.861 21.632 84.372 21.4859 83.776 21.1989C83.1794 20.914 82.6701 20.4744 82.301 19.926H82.258V25.3559H79.431V9.88995H82.101L82.105 9.88795ZM98.383 18.9699C98.7237 18.7712 99.0126 18.4947 99.226 18.1629C99.4393 17.8309 99.5907 17.443 99.68 16.999C99.7673 16.5556 99.811 16.1056 99.811 15.6489C99.812 15.1941 99.7637 14.7404 99.667 14.2959C99.5805 13.8758 99.4197 13.4745 99.192 13.1109C98.9759 12.769 98.684 12.4812 98.339 12.2699C97.9923 12.0546 97.5673 11.9469 97.064 11.9469C96.562 11.9469 96.116 12.0569 95.771 12.2699C95.4217 12.4833 95.1403 12.7599 94.927 13.0999C94.706 13.4606 94.5521 13.8584 94.473 14.2739C94.3843 14.7166 94.3403 15.1746 94.341 15.6479C94.341 16.1219 94.387 16.5549 94.485 16.9979C94.581 17.4406 94.7357 17.8283 94.949 18.1609C95.1643 18.4943 95.4487 18.7636 95.802 18.9689C96.156 19.1756 96.584 19.2793 97.086 19.28C97.588 19.28 98.034 19.1759 98.38 18.9699H98.383ZM94.31 9.88895V11.3519H94.354C94.7373 10.7319 95.2243 10.2813 95.815 9.99995C96.405 9.71895 96.889 9.57995 97.598 9.57995C98.499 9.57995 99.107 9.74895 99.758 10.0889C100.409 10.4283 100.947 10.8789 101.374 11.4409C101.802 12.0029 102.12 12.6563 102.328 13.4009C102.533 14.1476 102.636 14.9269 102.637 15.7389C102.637 16.5069 102.534 17.2459 102.328 17.9559C102.134 18.6363 101.814 19.2745 101.386 19.8379C100.965 20.3852 100.428 20.8317 99.813 21.1449C99.185 21.4689 98.616 21.6329 97.775 21.6329C97.066 21.6329 96.577 21.487 95.98 21.2C95.3838 20.9149 94.8748 20.4753 94.506 19.9269H94.463V25.3569H91.635V9.88995H94.306L94.31 9.88895ZM55.955 18.5939C56.095 18.8386 56.2763 19.0379 56.499 19.1919C56.719 19.3473 56.974 19.4619 57.264 19.5359C57.551 19.6099 58.138 19.6459 58.449 19.6459C58.67 19.6459 58.944 19.6199 59.189 19.5689C59.432 19.5179 59.776 19.4369 59.977 19.3259C60.177 19.2159 60.343 19.0683 60.475 18.8829C60.608 18.6979 60.673 18.439 60.673 18.158C60.673 17.73 60.237 17.2599 59.609 17.0239C58.9823 16.7866 58.107 16.5503 56.983 16.3149C56.5312 16.2133 56.0844 16.0909 55.644 15.9479C55.2318 15.8203 54.8401 15.6341 54.481 15.3949C54.147 15.1712 53.8672 14.8757 53.662 14.5299C53.4553 14.1833 53.352 13.7586 53.352 13.2559C53.352 12.5179 53.4963 11.9126 53.785 11.4399C54.0649 10.9763 54.4578 10.5913 54.927 10.3209C55.4219 10.0392 55.9614 9.84404 56.522 9.74395C57.065 9.63334 57.6178 9.57805 58.172 9.57895C58.794 9.57895 59.227 9.63695 59.811 9.75595C60.3623 9.86245 60.8907 10.0648 61.372 10.3539C61.83 10.6346 62.21 11.0069 62.512 11.4709C62.816 11.9369 62.9967 12.5243 63.054 13.2329H60.395C60.352 12.6279 60.123 12.1529 59.709 11.9409C59.295 11.7259 58.663 11.5969 58.101 11.5969C57.925 11.5969 57.437 11.6369 57.239 11.6649C57.041 11.6929 56.809 11.7509 56.639 11.8229C56.469 11.8976 56.3247 12.0049 56.206 12.1449C56.087 12.2859 56.029 12.5369 56.029 12.7739C56.0283 13.0539 56.1317 13.2823 56.339 13.4589C56.545 13.6376 56.814 13.7819 57.146 13.8919C57.4787 14.0026 57.8593 14.1026 58.288 14.1919C58.716 14.2809 59.455 14.4869 59.896 14.5919C60.354 14.6959 60.635 14.8189 61.071 14.9669C61.5057 15.1156 61.8937 15.3116 62.235 15.5549C62.5743 15.7996 62.8477 16.1026 63.055 16.464C63.261 16.8246 63.364 17.2713 63.364 17.804C63.364 18.5573 63.213 19.1893 62.911 19.7C62.6077 20.21 62.2127 20.6199 61.726 20.9299C61.238 21.2399 60.846 21.3199 60.218 21.4449C59.5865 21.5692 58.9446 21.6321 58.301 21.6329C57.7017 21.6332 57.1043 21.5661 56.52 21.433C55.92 21.3131 55.3459 21.0883 54.824 20.7689C54.3293 20.4589 53.9233 20.0489 53.606 19.5389C53.287 19.0299 53.116 18.3909 53.084 17.6219H55.744C55.744 17.9619 55.814 18.352 55.954 18.596L55.955 18.5939ZM52.204 9.89595V11.8349H49.9V17.8369C49.9 18.3696 49.988 18.7243 50.164 18.9009C50.3413 19.0783 50.696 19.1673 51.228 19.1679C51.4053 19.1673 51.5753 19.1596 51.738 19.1449C51.9007 19.1303 52.0557 19.1079 52.203 19.0779V21.3509C51.9102 21.3993 51.6146 21.4291 51.318 21.4399C50.9927 21.4533 50.6747 21.4603 50.364 21.4609C49.878 21.4609 49.414 21.4279 48.981 21.3619C48.6193 21.32 48.275 21.1834 47.983 20.9659C47.6994 20.7568 47.4795 20.4729 47.348 20.1459C47.1621 19.7043 47.0688 19.2291 47.074 18.7499V11.8269H45.17V9.88795H47.074V6.45395L49.902 6.46195V9.89595H52.204ZM24.65 5.52295V11.4249H24.715C25.113 10.7609 25.745 10.2549 26.365 9.95295C26.986 9.64795 27.635 9.57695 28.225 9.57695C29.066 9.57695 29.427 9.69095 29.965 9.91895C30.505 10.1483 30.9293 10.4663 31.238 10.8729C31.5487 11.2796 31.7667 11.7743 31.892 12.3569C32.018 12.9416 32.081 13.5879 32.081 14.2959V21.3409H29.266V14.8709C29.2667 13.9249 29.1193 13.2196 28.824 12.7549C28.528 12.2889 28.002 11.9449 27.252 11.8909C26.285 11.8209 25.609 12.2149 25.226 12.7239C24.841 13.2339 24.649 14.1679 24.649 15.3349V21.339H21.821V5.52295H24.65Z" fill="#FAFAFA"/>
</svg>
